<svg id="Layer_1" data-name="Layer 1" xmlns="http://www.w3.org/2000/svg" viewBox="0 0 79.38 149.58"><defs><style>.cls-1{fill:#eee;}.cls-2{fill:#fff;}.cls-3{fill:#654da0;}.cls-4{fill:#7d5ca7;}.cls-5{fill:#4f3a97;}</style></defs><path class="cls-1" d="M66.07,68.61C63.75,26.32,48,7,41.86,1a3.53,3.53,0,0,0-4.92,0C30.79,7,15.06,26.33,12.76,68.62c0,0-1.44,25.08,10.39,49.3H55.7C67.52,93.69,66.07,68.61,66.07,68.61Z"/><polygon class="cls-2" points="49.92 129.76 28.52 129.57 29.84 121.12 48.6 121.31 49.92 129.76"/><rect class="cls-3" x="26.45" y="113.68" width="25.94" height="10.07"/><path class="cls-4" d="M19.1,80.66,2.73,101.11A12.43,12.43,0,0,0,.12,110.6L4.8,144.41a2.67,2.67,0,0,0,3.49,2.17h0a2.67,2.67,0,0,0,1.81-2.24c.74-6.72,4.35-31.47,17.8-38.61Z"/><path class="cls-4" d="M60.26,80.65l16.38,20.44a12.44,12.44,0,0,1,2.62,9.49L74.6,144.39a2.68,2.68,0,0,1-3.5,2.17h0a2.67,2.67,0,0,1-1.81-2.24c-.74-6.71-4.36-31.46-17.81-38.6Z"/><path class="cls-4" d="M41.41,149.58H37.93a1.43,1.43,0,0,1-1.42-1.4L35.24,87.62A1.77,1.77,0,0,1,37,85.82h5.31a1.76,1.76,0,0,1,1.76,1.8l-1.24,60.56A1.42,1.42,0,0,1,41.41,149.58Z"/><path class="cls-3" d="M53.54,56.61A13.89,13.89,0,1,1,39.65,42.73,13.9,13.9,0,0,1,53.54,56.61Z"/><path class="cls-5" d="M48.79,56.61a9,9,0,1,1-9-9A9,9,0,0,1,48.79,56.61Z"/></svg>